<mxfile host="app.diagrams.net" agent="Mozilla/5.0 (Windows NT 10.0; Win64; x64) AppleWebKit/537.36 (KHTML, like Gecko) Chrome/129.0.0.0 Safari/537.36" version="24.7.17">
  <diagram name="Page-1" id="52a04d89-c75d-2922-d76d-85b35f80e030">
    <mxGraphModel dx="1050" dy="603" grid="1" gridSize="10" guides="1" tooltips="1" connect="1" arrows="1" fold="1" page="1" pageScale="1" pageWidth="1100" pageHeight="850" background="none" math="0" shadow="0">
      <root>
        <mxCell id="0" />
        <mxCell id="1" parent="0" />
        <mxCell id="tMOTMlqAL_A3aNB570Pn-5" style="edgeStyle=orthogonalEdgeStyle;rounded=0;orthogonalLoop=1;jettySize=auto;html=1;exitX=0.5;exitY=1;exitDx=0;exitDy=0;" edge="1" parent="1" source="tMOTMlqAL_A3aNB570Pn-1" target="tMOTMlqAL_A3aNB570Pn-6">
          <mxGeometry relative="1" as="geometry">
            <mxPoint x="520" y="200" as="targetPoint" />
          </mxGeometry>
        </mxCell>
        <mxCell id="tMOTMlqAL_A3aNB570Pn-13" style="edgeStyle=orthogonalEdgeStyle;rounded=0;orthogonalLoop=1;jettySize=auto;html=1;entryX=0.82;entryY=-0.063;entryDx=0;entryDy=0;entryPerimeter=0;" edge="1" parent="1" source="tMOTMlqAL_A3aNB570Pn-1" target="tMOTMlqAL_A3aNB570Pn-11">
          <mxGeometry relative="1" as="geometry">
            <mxPoint x="394" y="200" as="targetPoint" />
          </mxGeometry>
        </mxCell>
        <mxCell id="tMOTMlqAL_A3aNB570Pn-14" style="edgeStyle=orthogonalEdgeStyle;rounded=0;orthogonalLoop=1;jettySize=auto;html=1;" edge="1" parent="1" source="tMOTMlqAL_A3aNB570Pn-1" target="tMOTMlqAL_A3aNB570Pn-15">
          <mxGeometry relative="1" as="geometry">
            <mxPoint x="680" y="210" as="targetPoint" />
          </mxGeometry>
        </mxCell>
        <mxCell id="tMOTMlqAL_A3aNB570Pn-1" value="Start Button" style="rounded=0;whiteSpace=wrap;html=1;" vertex="1" parent="1">
          <mxGeometry x="460" y="30" width="120" height="60" as="geometry" />
        </mxCell>
        <mxCell id="tMOTMlqAL_A3aNB570Pn-4" value="Money Input" style="rounded=0;whiteSpace=wrap;html=1;" vertex="1" parent="1">
          <mxGeometry x="230" y="30" width="120" height="60" as="geometry" />
        </mxCell>
        <mxCell id="tMOTMlqAL_A3aNB570Pn-7" style="edgeStyle=orthogonalEdgeStyle;rounded=0;orthogonalLoop=1;jettySize=auto;html=1;entryX=0.5;entryY=0;entryDx=0;entryDy=0;entryPerimeter=0;" edge="1" parent="1" source="tMOTMlqAL_A3aNB570Pn-6" target="tMOTMlqAL_A3aNB570Pn-18">
          <mxGeometry relative="1" as="geometry">
            <mxPoint x="520" y="290" as="targetPoint" />
          </mxGeometry>
        </mxCell>
        <mxCell id="tMOTMlqAL_A3aNB570Pn-6" value="Pseudo Random Number Generator with high frequency clock" style="rounded=0;whiteSpace=wrap;html=1;" vertex="1" parent="1">
          <mxGeometry x="460" y="130" width="120" height="60" as="geometry" />
        </mxCell>
        <mxCell id="tMOTMlqAL_A3aNB570Pn-9" value="7 Segment Display&#39;s" style="rounded=0;whiteSpace=wrap;html=1;" vertex="1" parent="1">
          <mxGeometry x="460" y="410" width="120" height="60" as="geometry" />
        </mxCell>
        <mxCell id="tMOTMlqAL_A3aNB570Pn-12" value="" style="edgeStyle=orthogonalEdgeStyle;rounded=0;orthogonalLoop=1;jettySize=auto;html=1;" edge="1" parent="1" source="tMOTMlqAL_A3aNB570Pn-4" target="tMOTMlqAL_A3aNB570Pn-11">
          <mxGeometry relative="1" as="geometry">
            <mxPoint x="290" y="270" as="targetPoint" />
            <mxPoint x="290" y="90" as="sourcePoint" />
          </mxGeometry>
        </mxCell>
        <mxCell id="tMOTMlqAL_A3aNB570Pn-16" style="edgeStyle=orthogonalEdgeStyle;rounded=0;orthogonalLoop=1;jettySize=auto;html=1;" edge="1" parent="1" source="tMOTMlqAL_A3aNB570Pn-11">
          <mxGeometry relative="1" as="geometry">
            <mxPoint x="490" y="300" as="targetPoint" />
          </mxGeometry>
        </mxCell>
        <mxCell id="tMOTMlqAL_A3aNB570Pn-11" value="Binary Sequence generator" style="rounded=0;whiteSpace=wrap;html=1;" vertex="1" parent="1">
          <mxGeometry x="290" y="210" width="120" height="60" as="geometry" />
        </mxCell>
        <mxCell id="tMOTMlqAL_A3aNB570Pn-17" style="edgeStyle=orthogonalEdgeStyle;rounded=0;orthogonalLoop=1;jettySize=auto;html=1;" edge="1" parent="1" source="tMOTMlqAL_A3aNB570Pn-15">
          <mxGeometry relative="1" as="geometry">
            <mxPoint x="560" y="300" as="targetPoint" />
            <Array as="points">
              <mxPoint x="561" y="250" />
            </Array>
          </mxGeometry>
        </mxCell>
        <mxCell id="tMOTMlqAL_A3aNB570Pn-15" value="Mod 10 Counter" style="rounded=0;whiteSpace=wrap;html=1;" vertex="1" parent="1">
          <mxGeometry x="640" y="210" width="130" height="60" as="geometry" />
        </mxCell>
        <mxCell id="tMOTMlqAL_A3aNB570Pn-20" style="edgeStyle=orthogonalEdgeStyle;rounded=0;orthogonalLoop=1;jettySize=auto;html=1;entryX=0.5;entryY=0;entryDx=0;entryDy=0;" edge="1" parent="1" source="tMOTMlqAL_A3aNB570Pn-18" target="tMOTMlqAL_A3aNB570Pn-9">
          <mxGeometry relative="1" as="geometry" />
        </mxCell>
        <mxCell id="tMOTMlqAL_A3aNB570Pn-18" value="Multiplexer to decide Output" style="rounded=0;whiteSpace=wrap;html=1;" vertex="1" parent="1">
          <mxGeometry x="460" y="300" width="120" height="60" as="geometry" />
        </mxCell>
      </root>
    </mxGraphModel>
  </diagram>
</mxfile>
